<?xml version="1.0" standalone="no"?>
<!DOCTYPE svg PUBLIC "-//W3C//DTD SVG 20010904//EN"
 "http://www.w3.org/TR/2001/REC-SVG-20010904/DTD/svg10.dtd">
<svg version="1.0" xmlns="http://www.w3.org/2000/svg"
 width="300.000000pt" height="300.000000pt" viewBox="0 0 300.000000 300.000000"
 preserveAspectRatio="xMidYMid meet">
<metadata>
Created by potrace 1.10, written by Peter Selinger 2001-2011
</metadata>
<g transform="translate(0.000000,300.000000) scale(0.100000,-0.100000)"
fill="#000000" stroke="none">
<path d="M1695 1993 c-64 -22 -131 -88 -141 -138 -3 -20 -4 -59 -2 -87 4 -42
12 -56 44 -89 l39 -38 110 -1 c61 -1 115 -1 120 0 6 0 -28 16 -74 34 -97 40
-127 60 -158 106 -28 40 -29 84 -4 130 28 54 73 75 156 75 96 0 157 -31 205
-104 l35 -53 3 63 c3 70 3 71 -73 95 -78 24 -200 27 -260 7z"/>
<path d="M972 1986 c30 -23 38 -64 38 -207 l0 -139 205 0 205 0 0 48 -1 47
-15 -27 c-23 -43 -50 -52 -181 -56 l-123 -4 0 168 0 169 132 -5 c151 -6 179
-16 219 -81 27 -43 45 -51 35 -16 -3 12 -6 43 -6 70 l0 47 -262 0 c-218 -1
-260 -3 -246 -14z"/>
<path d="M1733 1613 c20 -5 23 -33 5 -52 -11 -10 -10 -11 4 -6 39 15 30 66
-12 64 -11 -1 -10 -3 3 -6z"/>
<path d="M1949 1610 c-9 -5 -24 -27 -34 -50 -12 -26 -23 -39 -32 -36 -7 3 -13
1 -13 -4 0 -6 5 -10 11 -10 7 0 8 -11 4 -30 -5 -24 -4 -29 8 -24 9 3 16 -3 20
-15 3 -14 13 -21 29 -20 l23 0 -22 9 c-13 5 -23 16 -23 24 0 8 -5 16 -11 18
-14 5 6 69 34 111 25 36 35 27 12 -10 l-18 -28 21 19 c33 29 26 65 -9 46z"/>
<path d="M983 1591 c-3 -11 -17 -21 -34 -25 -21 -4 -34 -16 -46 -41 -16 -34
-16 -36 5 -65 12 -16 22 -37 22 -47 1 -17 1 -17 11 0 6 10 22 17 42 17 41 0
66 14 42 24 -24 9 -32 7 -16 -3 8 -5 -3 -8 -30 -7 -24 1 -50 5 -56 9 -20 13
-15 61 8 86 18 19 29 22 57 18 32 -6 33 -5 18 12 -12 13 -13 20 -4 29 9 9 9
12 -1 12 -7 0 -15 -9 -18 -19z"/>
<path d="M1444 1577 c-22 -26 -30 -45 -32 -84 -2 -28 1 -54 7 -57 6 -4 8 5 5
26 -4 24 3 49 24 91 16 31 28 57 27 57 -1 0 -15 -15 -31 -33z"/>
<path d="M1601 1584 c-45 -38 -42 -71 8 -91 45 -17 56 -35 41 -64 -9 -15 -15
-17 -30 -9 -38 20 -91 6 -90 -24 0 -6 5 -3 11 7 10 17 35 22 63 11 9 -3 13
-10 10 -15 -3 -5 1 -6 9 -3 8 3 18 1 22 -5 3 -6 14 -11 23 -11 16 1 16 1 0 10
-13 8 -14 15 -5 39 14 38 4 58 -32 66 -50 11 -57 38 -20 80 37 41 33 45 -10 9z"/>
<path d="M1095 1570 c-3 -5 0 -8 7 -5 7 3 24 -4 37 -14 20 -15 22 -21 12 -39
-6 -11 -11 -33 -10 -49 l1 -28 8 30 c4 17 15 47 24 68 9 20 12 37 7 37 -5 0
-11 -6 -14 -12 -3 -10 -9 -8 -24 5 -22 19 -39 22 -48 7z"/>
<path d="M1234 1498 c-18 -29 -13 -118 7 -118 6 0 6 6 0 18 -5 10 -6 36 -1 62
9 48 7 59 -6 38z"/>
<path d="M1770 1473 c0 -9 3 -13 7 -10 3 4 12 2 20 -5 20 -16 27 -3 8 16 -21
21 -35 20 -35 -1z"/>
<path d="M1846 1455 c-4 -22 -13 -43 -19 -47 -9 -6 -9 -8 -1 -8 21 0 35 28 32
62 l-3 33 -9 -40z"/>
<path d="M1007 1319 c-3 -23 -15 -52 -28 -65 l-22 -24 276 0 277 0 0 65 c0 36
-3 65 -7 65 -5 -1 -17 -15 -28 -32 -43 -67 -61 -73 -223 -73 l-147 0 -3 53 -3
52 -43 0 c-43 0 -43 0 -49 -41z"/>
<path d="M1534 1344 c3 -9 6 -24 6 -34 0 -22 77 -61 159 -80 71 -17 175 -8
227 18 35 18 114 92 114 107 0 3 -13 5 -30 5 -19 0 -30 -5 -30 -14 0 -24 -50
-76 -87 -91 -82 -34 -183 -12 -258 56 -36 34 -61 49 -80 49 -21 0 -26 -4 -21
-16z"/>
</g>
</svg>
